# xmcd CD database file
#
# Track frame offsets:
#	150
#	15674
#	34112
#	50851
#	65717
#	81456
#	95622
#	113223
#	134392
#	150287
#	167532
#
# Disc length: 2415 seconds
#
# Revision: 0
# Processed by: cddbd v1.5.2PL0 Copyright (c) Steve Scherf et al.
# Submitted via: CDex 1.70beta2
#
DISCID=90096d0b
DTITLE=Stars of Studio 99 (USA-Country) - A Tribute to Tim McGraw
DYEAR=1900
DGENRE=Country
TTITLE0=Just To See You Smile
TTITLE1=Don't Take the Girl
TTITLE2=It's Your Love
TTITLE3=Can't really Be Gone
TTITLE4=When the stars Go Blue
TTITLE5=It Like it, I Love It
TTITLE6=Grown Men Don't Cry
TTITLE7=Live Like You Were Dying
TTITLE8=For A Little Whjle
TTITLE9=Lot's of Leavin' Left To Do
TTITLE10=Things Change
EXTD=
EXTT0=
EXTT1=
EXTT2=
EXTT3=
EXTT4=
EXTT5=
EXTT6=
EXTT7=
EXTT8=
EXTT9=
EXTT10=
PLAYORDER=
